<?xml version="1.0"?>
<svg xmlns="http://www.w3.org/2000/svg" version="1.1">
<text y="13" x="41" font-family="monospace" font-size="8" font-weight="bold" text-anchor="end">Page</text>
<text y="24" x="41" font-family="monospace" font-size="8" text-anchor="end">0</text>
<rect x="48" y="16.0" width="8" height="8.0" fill="black" />
<rect x="56" y="16.0" width="8" height="8.0" fill="black" />
<rect x="64" y="16.0" width="8" height="8.0" fill="black" />
<rect x="72" y="23.3173828125" width="8" height="0.6826171875" fill="#6960c0" />
<rect x="80" y="20.271484375" width="8" height="3.728515625" fill="#6960c0" />
<rect x="88" y="16.5029296875" width="8" height="7.4970703125" fill="#6960c0" />
<rect x="96" y="16.5029296875" width="8" height="7.4970703125" fill="#6960c0" />
<rect x="104" y="16.5029296875" width="8" height="7.4970703125" fill="#6960c0" />
<rect x="112" y="16.5029296875" width="8" height="7.4970703125" fill="#6960c0" />
<rect x="120" y="16.53466796875" width="8" height="7.46533203125" fill="#6960c0" />
<rect x="128" y="16.50830078125" width="8" height="7.49169921875" fill="#6960c0" />
<rect x="136" y="16.50830078125" width="8" height="7.49169921875" fill="#6960c0" />
<rect x="144" y="16.50830078125" width="8" height="7.49169921875" fill="#6960c0" />
<rect x="152" y="16.50830078125" width="8" height="7.49169921875" fill="#6960c0" />
<rect x="160" y="16.50830078125" width="8" height="7.49169921875" fill="#6960c0" />
<rect x="168" y="16.50830078125" width="8" height="7.49169921875" fill="#6960c0" />
<rect x="176" y="16.50830078125" width="8" height="7.49169921875" fill="#6960c0" />
<rect x="184" y="16.50830078125" width="8" height="7.49169921875" fill="#6960c0" />
<rect x="192" y="17.044921875" width="8" height="6.955078125" fill="#6960c0" />
<rect x="200" y="24.0" width="8" height="0.0" fill="black" />
<rect x="208" y="24.0" width="8" height="0.0" fill="black" />
<rect x="216" y="24.0" width="8" height="0.0" fill="black" />
<rect x="224" y="24.0" width="8" height="0.0" fill="black" />
<rect x="232" y="22.1435546875" width="8" height="1.8564453125" fill="#6960c0" />
<rect x="240" y="16.50830078125" width="8" height="7.49169921875" fill="#6960c0" />
<rect x="248" y="16.50830078125" width="8" height="7.49169921875" fill="#6960c0" />
<rect x="256" y="16.50830078125" width="8" height="7.49169921875" fill="#6960c0" />
<rect x="264" y="16.50830078125" width="8" height="7.49169921875" fill="#6960c0" />
<rect x="272" y="16.50830078125" width="8" height="7.49169921875" fill="#6960c0" />
<rect x="280" y="16.50830078125" width="8" height="7.49169921875" fill="#6960c0" />
<rect x="288" y="16.50830078125" width="8" height="7.49169921875" fill="#6960c0" />
<rect x="296" y="16.50830078125" width="8" height="7.49169921875" fill="#6960c0" />
<rect x="304" y="16.50830078125" width="8" height="7.49169921875" fill="#6960c0" />
<rect x="312" y="16.50830078125" width="8" height="7.49169921875" fill="#6960c0" />
<rect x="320" y="16.50830078125" width="8" height="7.49169921875" fill="#6960c0" />
<rect x="328" y="16.50830078125" width="8" height="7.49169921875" fill="#6960c0" />
<rect x="336" y="24.0" width="8" height="0.0" fill="black" />
<rect x="344" y="24.0" width="8" height="0.0" fill="black" />
<rect x="352" y="24.0" width="8" height="0.0" fill="black" />
<rect x="360" y="24.0" width="8" height="0.0" fill="black" />
<rect x="368" y="24.0" width="8" height="0.0" fill="black" />
<rect x="376" y="24.0" width="8" height="0.0" fill="black" />
<rect x="384" y="24.0" width="8" height="0.0" fill="black" />
<rect x="392" y="24.0" width="8" height="0.0" fill="black" />
<rect x="400" y="24.0" width="8" height="0.0" fill="black" />
<rect x="408" y="24.0" width="8" height="0.0" fill="black" />
<rect x="416" y="24.0" width="8" height="0.0" fill="black" />
<rect x="424" y="24.0" width="8" height="0.0" fill="black" />
<rect x="432" y="24.0" width="8" height="0.0" fill="black" />
<rect x="440" y="24.0" width="8" height="0.0" fill="black" />
<rect x="448" y="24.0" width="8" height="0.0" fill="black" />
<rect x="456" y="24.0" width="8" height="0.0" fill="black" />
<rect x="464" y="24.0" width="8" height="0.0" fill="black" />
<rect x="472" y="24.0" width="8" height="0.0" fill="black" />
<rect x="480" y="24.0" width="8" height="0.0" fill="black" />
<rect x="488" y="24.0" width="8" height="0.0" fill="black" />
<rect x="496" y="24.0" width="8" height="0.0" fill="black" />
<rect x="504" y="24.0" width="8" height="0.0" fill="black" />
<rect x="512" y="24.0" width="8" height="0.0" fill="black" />
<rect x="520" y="24.0" width="8" height="0.0" fill="black" />
<rect x="528" y="24.0" width="8" height="0.0" fill="black" />
<rect x="536" y="24.0" width="8" height="0.0" fill="black" />
<rect x="544" y="24.0" width="8" height="0.0" fill="black" />
<rect x="552" y="24.0" width="8" height="0.0" fill="black" />
<text y="32" x="41" font-family="monospace" font-size="8" text-anchor="end">64</text>
<rect x="48" y="24.50830078125" width="8" height="7.49169921875" fill="#6960c0" />
<rect x="56" y="24.50830078125" width="8" height="7.49169921875" fill="#6960c0" />
<rect x="64" y="24.50830078125" width="8" height="7.49169921875" fill="#6960c0" />
<rect x="72" y="24.50830078125" width="8" height="7.49169921875" fill="#6960c0" />
<rect x="80" y="24.50830078125" width="8" height="7.49169921875" fill="#6960c0" />
<rect x="88" y="24.50830078125" width="8" height="7.49169921875" fill="#6960c0" />
<rect x="96" y="24.50830078125" width="8" height="7.49169921875" fill="#6960c0" />
<rect x="104" y="24.50830078125" width="8" height="7.49169921875" fill="#6960c0" />
<rect x="112" y="24.50830078125" width="8" height="7.49169921875" fill="#6960c0" />
<rect x="120" y="24.50830078125" width="8" height="7.49169921875" fill="#6960c0" />
<rect x="128" y="24.50830078125" width="8" height="7.49169921875" fill="#6960c0" />
<rect x="136" y="24.50830078125" width="8" height="7.49169921875" fill="#6960c0" />
<rect x="144" y="24.50830078125" width="8" height="7.49169921875" fill="#6960c0" />
<rect x="152" y="24.50830078125" width="8" height="7.49169921875" fill="#6960c0" />
<rect x="160" y="24.50830078125" width="8" height="7.49169921875" fill="#6960c0" />
<rect x="168" y="24.50830078125" width="8" height="7.49169921875" fill="#6960c0" />
<rect x="176" y="24.51806640625" width="8" height="7.48193359375" fill="#6960c0" />
<rect x="184" y="24.515625" width="8" height="7.484375" fill="#6960c0" />
<rect x="192" y="24.515625" width="8" height="7.484375" fill="#6960c0" />
<rect x="200" y="24.515625" width="8" height="7.484375" fill="#6960c0" />
<rect x="208" y="24.515625" width="8" height="7.484375" fill="#6960c0" />
<rect x="216" y="24.515625" width="8" height="7.484375" fill="#6960c0" />
<rect x="224" y="24.515625" width="8" height="7.484375" fill="#6960c0" />
<rect x="232" y="24.515625" width="8" height="7.484375" fill="#6960c0" />
<rect x="240" y="24.515625" width="8" height="7.484375" fill="#6960c0" />
<rect x="248" y="24.515625" width="8" height="7.484375" fill="#6960c0" />
<rect x="256" y="24.515625" width="8" height="7.484375" fill="#6960c0" />
<rect x="264" y="24.515625" width="8" height="7.484375" fill="#6960c0" />
<rect x="272" y="24.515625" width="8" height="7.484375" fill="#6960c0" />
<rect x="280" y="24.515625" width="8" height="7.484375" fill="#6960c0" />
<rect x="288" y="24.515625" width="8" height="7.484375" fill="#6960c0" />
<rect x="296" y="24.515625" width="8" height="7.484375" fill="#6960c0" />
<rect x="304" y="24.515625" width="8" height="7.484375" fill="#6960c0" />
<rect x="312" y="24.515625" width="8" height="7.484375" fill="#6960c0" />
<rect x="320" y="24.515625" width="8" height="7.484375" fill="#6960c0" />
<rect x="328" y="24.515625" width="8" height="7.484375" fill="#6960c0" />
<rect x="336" y="24.515625" width="8" height="7.484375" fill="#6960c0" />
<rect x="344" y="24.515625" width="8" height="7.484375" fill="#6960c0" />
<rect x="352" y="24.515625" width="8" height="7.484375" fill="#6960c0" />
<rect x="360" y="24.515625" width="8" height="7.484375" fill="#6960c0" />
<rect x="368" y="24.515625" width="8" height="7.484375" fill="#6960c0" />
<rect x="376" y="24.515625" width="8" height="7.484375" fill="#6960c0" />
<rect x="384" y="24.515625" width="8" height="7.484375" fill="#6960c0" />
<rect x="392" y="24.515625" width="8" height="7.484375" fill="#6960c0" />
<rect x="400" y="24.515625" width="8" height="7.484375" fill="#6960c0" />
<rect x="408" y="24.515625" width="8" height="7.484375" fill="#6960c0" />
<rect x="416" y="24.515625" width="8" height="7.484375" fill="#6960c0" />
<rect x="424" y="24.515625" width="8" height="7.484375" fill="#6960c0" />
<rect x="432" y="24.515625" width="8" height="7.484375" fill="#6960c0" />
<rect x="440" y="24.515625" width="8" height="7.484375" fill="#6960c0" />
<rect x="448" y="24.515625" width="8" height="7.484375" fill="#6960c0" />
<rect x="456" y="24.515625" width="8" height="7.484375" fill="#6960c0" />
<rect x="464" y="24.515625" width="8" height="7.484375" fill="#6960c0" />
<rect x="472" y="24.515625" width="8" height="7.484375" fill="#6960c0" />
<rect x="480" y="24.515625" width="8" height="7.484375" fill="#6960c0" />
<rect x="488" y="24.515625" width="8" height="7.484375" fill="#6960c0" />
<rect x="496" y="24.515625" width="8" height="7.484375" fill="#6960c0" />
<rect x="504" y="24.515625" width="8" height="7.484375" fill="#6960c0" />
<rect x="512" y="24.515625" width="8" height="7.484375" fill="#6960c0" />
<rect x="520" y="24.515625" width="8" height="7.484375" fill="#6960c0" />
<rect x="528" y="24.515625" width="8" height="7.484375" fill="#6960c0" />
<rect x="536" y="24.515625" width="8" height="7.484375" fill="#6960c0" />
<rect x="544" y="24.515625" width="8" height="7.484375" fill="#6960c0" />
<rect x="552" y="24.515625" width="8" height="7.484375" fill="#6960c0" />
<text y="40" x="41" font-family="monospace" font-size="8" text-anchor="end">128</text>
<rect x="48" y="32.515625" width="8" height="7.484375" fill="#6960c0" />
<rect x="56" y="34.26171875" width="8" height="5.73828125" fill="#6960c0" />
<rect x="64" y="40.0" width="8" height="0.0" fill="black" />
<rect x="72" y="40.0" width="8" height="0.0" fill="black" />
<rect x="80" y="40.0" width="8" height="0.0" fill="black" />
<rect x="88" y="40.0" width="8" height="0.0" fill="black" />
<rect x="96" y="40.0" width="8" height="0.0" fill="black" />
<rect x="104" y="40.0" width="8" height="0.0" fill="black" />
<rect x="112" y="40.0" width="8" height="0.0" fill="black" />
<rect x="120" y="40.0" width="8" height="0.0" fill="black" />
<rect x="128" y="40.0" width="8" height="0.0" fill="black" />
<rect x="136" y="40.0" width="8" height="0.0" fill="black" />
<rect x="144" y="40.0" width="8" height="0.0" fill="black" />
<rect x="152" y="40.0" width="8" height="0.0" fill="black" />
<rect x="160" y="40.0" width="8" height="0.0" fill="black" />
<rect x="168" y="40.0" width="8" height="0.0" fill="black" />
<rect x="176" y="40.0" width="8" height="0.0" fill="black" />
<rect x="184" y="40.0" width="8" height="0.0" fill="black" />
<rect x="192" y="40.0" width="8" height="0.0" fill="black" />
<rect x="200" y="40.0" width="8" height="0.0" fill="black" />
<rect x="208" y="40.0" width="8" height="0.0" fill="black" />
<rect x="216" y="40.0" width="8" height="0.0" fill="black" />
<rect x="224" y="40.0" width="8" height="0.0" fill="black" />
<rect x="232" y="40.0" width="8" height="0.0" fill="black" />
<rect x="240" y="40.0" width="8" height="0.0" fill="black" />
<rect x="248" y="40.0" width="8" height="0.0" fill="black" />
<rect x="256" y="40.0" width="8" height="0.0" fill="black" />
<rect x="264" y="40.0" width="8" height="0.0" fill="black" />
<rect x="272" y="40.0" width="8" height="0.0" fill="black" />
<rect x="280" y="40.0" width="8" height="0.0" fill="black" />
<rect x="288" y="40.0" width="8" height="0.0" fill="black" />
<rect x="296" y="40.0" width="8" height="0.0" fill="black" />
<rect x="304" y="40.0" width="8" height="0.0" fill="black" />
<rect x="312" y="40.0" width="8" height="0.0" fill="black" />
<rect x="320" y="40.0" width="8" height="0.0" fill="black" />
<rect x="328" y="40.0" width="8" height="0.0" fill="black" />
<rect x="336" y="40.0" width="8" height="0.0" fill="black" />
<rect x="344" y="40.0" width="8" height="0.0" fill="black" />
<rect x="352" y="40.0" width="8" height="0.0" fill="black" />
<rect x="360" y="40.0" width="8" height="0.0" fill="black" />
<rect x="368" y="40.0" width="8" height="0.0" fill="black" />
<rect x="376" y="40.0" width="8" height="0.0" fill="black" />
<rect x="384" y="40.0" width="8" height="0.0" fill="black" />
<rect x="392" y="40.0" width="8" height="0.0" fill="black" />
<rect x="400" y="40.0" width="8" height="0.0" fill="black" />
<rect x="408" y="40.0" width="8" height="0.0" fill="black" />
<rect x="416" y="40.0" width="8" height="0.0" fill="black" />
<rect x="424" y="40.0" width="8" height="0.0" fill="black" />
<rect x="432" y="40.0" width="8" height="0.0" fill="black" />
<rect x="440" y="40.0" width="8" height="0.0" fill="black" />
<rect x="448" y="40.0" width="8" height="0.0" fill="black" />
<rect x="456" y="40.0" width="8" height="0.0" fill="black" />
<rect x="464" y="40.0" width="8" height="0.0" fill="black" />
<rect x="472" y="40.0" width="8" height="0.0" fill="black" />
<rect x="480" y="40.0" width="8" height="0.0" fill="black" />
<rect x="488" y="40.0" width="8" height="0.0" fill="black" />
<rect x="496" y="40.0" width="8" height="0.0" fill="black" />
<rect x="504" y="40.0" width="8" height="0.0" fill="black" />
<rect x="512" y="40.0" width="8" height="0.0" fill="black" />
<rect x="520" y="40.0" width="8" height="0.0" fill="black" />
<rect x="528" y="40.0" width="8" height="0.0" fill="black" />
<rect x="536" y="40.0" width="8" height="0.0" fill="black" />
<rect x="544" y="40.0" width="8" height="0.0" fill="black" />
<rect x="552" y="40.0" width="8" height="0.0" fill="black" />
<text y="48" x="41" font-family="monospace" font-size="8" text-anchor="end">192</text>
<rect x="48" y="48.0" width="8" height="0.0" fill="black" />
<rect x="56" y="48.0" width="8" height="0.0" fill="black" />
<rect x="64" y="48.0" width="8" height="0.0" fill="black" />
<rect x="72" y="48.0" width="8" height="0.0" fill="black" />
<rect x="80" y="48.0" width="8" height="0.0" fill="black" />
<rect x="88" y="48.0" width="8" height="0.0" fill="black" />
<rect x="96" y="48.0" width="8" height="0.0" fill="black" />
<rect x="104" y="48.0" width="8" height="0.0" fill="black" />
<rect x="112" y="48.0" width="8" height="0.0" fill="black" />
<rect x="120" y="48.0" width="8" height="0.0" fill="black" />
<rect x="128" y="48.0" width="8" height="0.0" fill="black" />
<rect x="136" y="48.0" width="8" height="0.0" fill="black" />
<rect x="144" y="48.0" width="8" height="0.0" fill="black" />
<rect x="152" y="48.0" width="8" height="0.0" fill="black" />
<rect x="160" y="48.0" width="8" height="0.0" fill="black" />
<rect x="168" y="48.0" width="8" height="0.0" fill="black" />
<rect x="176" y="48.0" width="8" height="0.0" fill="black" />
<rect x="184" y="48.0" width="8" height="0.0" fill="black" />
<rect x="192" y="48.0" width="8" height="0.0" fill="black" />
<rect x="200" y="48.0" width="8" height="0.0" fill="black" />
<rect x="208" y="48.0" width="8" height="0.0" fill="black" />
<rect x="216" y="48.0" width="8" height="0.0" fill="black" />
<rect x="224" y="48.0" width="8" height="0.0" fill="black" />
<rect x="232" y="48.0" width="8" height="0.0" fill="black" />
<rect x="240" y="48.0" width="8" height="0.0" fill="black" />
<rect x="248" y="48.0" width="8" height="0.0" fill="black" />
<rect x="256" y="48.0" width="8" height="0.0" fill="black" />
<rect x="264" y="48.0" width="8" height="0.0" fill="black" />
<rect x="272" y="48.0" width="8" height="0.0" fill="black" />
<rect x="280" y="48.0" width="8" height="0.0" fill="black" />
<rect x="288" y="48.0" width="8" height="0.0" fill="black" />
<rect x="296" y="48.0" width="8" height="0.0" fill="black" />
<rect x="304" y="48.0" width="8" height="0.0" fill="black" />
<rect x="312" y="48.0" width="8" height="0.0" fill="black" />
<rect x="320" y="48.0" width="8" height="0.0" fill="black" />
<rect x="328" y="48.0" width="8" height="0.0" fill="black" />
<rect x="336" y="48.0" width="8" height="0.0" fill="black" />
<rect x="344" y="48.0" width="8" height="0.0" fill="black" />
<rect x="352" y="48.0" width="8" height="0.0" fill="black" />
<rect x="360" y="48.0" width="8" height="0.0" fill="black" />
<rect x="368" y="48.0" width="8" height="0.0" fill="black" />
<rect x="376" y="48.0" width="8" height="0.0" fill="black" />
<rect x="384" y="48.0" width="8" height="0.0" fill="black" />
<rect x="392" y="48.0" width="8" height="0.0" fill="black" />
<rect x="400" y="48.0" width="8" height="0.0" fill="black" />
<rect x="408" y="48.0" width="8" height="0.0" fill="black" />
<rect x="416" y="48.0" width="8" height="0.0" fill="black" />
<rect x="424" y="48.0" width="8" height="0.0" fill="black" />
<rect x="432" y="48.0" width="8" height="0.0" fill="black" />
<rect x="440" y="48.0" width="8" height="0.0" fill="black" />
<rect x="448" y="48.0" width="8" height="0.0" fill="black" />
<rect x="456" y="48.0" width="8" height="0.0" fill="black" />
<rect x="464" y="48.0" width="8" height="0.0" fill="black" />
<rect x="472" y="48.0" width="8" height="0.0" fill="black" />
<rect x="480" y="48.0" width="8" height="0.0" fill="black" />
<rect x="488" y="48.0" width="8" height="0.0" fill="black" />
<rect x="496" y="48.0" width="8" height="0.0" fill="black" />
<rect x="504" y="48.0" width="8" height="0.0" fill="black" />
<rect x="512" y="48.0" width="8" height="0.0" fill="black" />
<rect x="520" y="48.0" width="8" height="0.0" fill="black" />
<rect x="528" y="48.0" width="8" height="0.0" fill="black" />
<rect x="536" y="48.0" width="8" height="0.0" fill="black" />
<rect x="544" y="48.0" width="8" height="0.0" fill="black" />
<rect x="552" y="48.0" width="8" height="0.0" fill="black" />
<text y="56" x="41" font-family="monospace" font-size="8" text-anchor="end">256</text>
<rect x="48" y="56.0" width="8" height="0.0" fill="black" />
<rect x="56" y="56.0" width="8" height="0.0" fill="black" />
<rect x="64" y="56.0" width="8" height="0.0" fill="black" />
<rect x="72" y="56.0" width="8" height="0.0" fill="black" />
<rect x="80" y="56.0" width="8" height="0.0" fill="black" />
<rect x="88" y="56.0" width="8" height="0.0" fill="black" />
<rect x="96" y="56.0" width="8" height="0.0" fill="black" />
<rect x="104" y="56.0" width="8" height="0.0" fill="black" />
<rect x="112" y="56.0" width="8" height="0.0" fill="black" />
<rect x="120" y="56.0" width="8" height="0.0" fill="black" />
<rect x="128" y="56.0" width="8" height="0.0" fill="black" />
<rect x="136" y="56.0" width="8" height="0.0" fill="black" />
<rect x="144" y="56.0" width="8" height="0.0" fill="black" />
<rect x="152" y="56.0" width="8" height="0.0" fill="black" />
<rect x="160" y="56.0" width="8" height="0.0" fill="black" />
<rect x="168" y="56.0" width="8" height="0.0" fill="black" />
<rect x="176" y="56.0" width="8" height="0.0" fill="black" />
<rect x="184" y="56.0" width="8" height="0.0" fill="black" />
<rect x="192" y="56.0" width="8" height="0.0" fill="black" />
<rect x="200" y="56.0" width="8" height="0.0" fill="black" />
<rect x="208" y="56.0" width="8" height="0.0" fill="black" />
<rect x="216" y="56.0" width="8" height="0.0" fill="black" />
<rect x="224" y="56.0" width="8" height="0.0" fill="black" />
<rect x="232" y="56.0" width="8" height="0.0" fill="black" />
<rect x="240" y="56.0" width="8" height="0.0" fill="black" />
<rect x="248" y="56.0" width="8" height="0.0" fill="black" />
<rect x="256" y="56.0" width="8" height="0.0" fill="black" />
<rect x="264" y="56.0" width="8" height="0.0" fill="black" />
<rect x="272" y="56.0" width="8" height="0.0" fill="black" />
<rect x="280" y="56.0" width="8" height="0.0" fill="black" />
<rect x="288" y="56.0" width="8" height="0.0" fill="black" />
<rect x="296" y="56.0" width="8" height="0.0" fill="black" />
<rect x="304" y="56.0" width="8" height="0.0" fill="black" />
<rect x="312" y="56.0" width="8" height="0.0" fill="black" />
<rect x="320" y="56.0" width="8" height="0.0" fill="black" />
<rect x="328" y="56.0" width="8" height="0.0" fill="black" />
<rect x="336" y="56.0" width="8" height="0.0" fill="black" />
<rect x="344" y="56.0" width="8" height="0.0" fill="black" />
<rect x="352" y="56.0" width="8" height="0.0" fill="black" />
<rect x="360" y="56.0" width="8" height="0.0" fill="black" />
<rect x="368" y="56.0" width="8" height="0.0" fill="black" />
<rect x="376" y="56.0" width="8" height="0.0" fill="black" />
<rect x="384" y="56.0" width="8" height="0.0" fill="black" />
<rect x="392" y="56.0" width="8" height="0.0" fill="black" />
<rect x="400" y="56.0" width="8" height="0.0" fill="black" />
<rect x="408" y="56.0" width="8" height="0.0" fill="black" />
<rect x="416" y="56.0" width="8" height="0.0" fill="black" />
<rect x="424" y="56.0" width="8" height="0.0" fill="black" />
<rect x="432" y="56.0" width="8" height="0.0" fill="black" />
<rect x="440" y="56.0" width="8" height="0.0" fill="black" />
<rect x="448" y="56.0" width="8" height="0.0" fill="black" />
<rect x="456" y="56.0" width="8" height="0.0" fill="black" />
<rect x="464" y="56.0" width="8" height="0.0" fill="black" />
<rect x="472" y="56.0" width="8" height="0.0" fill="black" />
<rect x="480" y="56.0" width="8" height="0.0" fill="black" />
<rect x="488" y="56.0" width="8" height="0.0" fill="black" />
<rect x="496" y="56.0" width="8" height="0.0" fill="black" />
<rect x="504" y="56.0" width="8" height="0.0" fill="black" />
<rect x="512" y="56.0" width="8" height="0.0" fill="black" />
<rect x="520" y="56.0" width="8" height="0.0" fill="black" />
<rect x="528" y="56.0" width="8" height="0.0" fill="black" />
<rect x="536" y="56.0" width="8" height="0.0" fill="black" />
<rect x="544" y="56.0" width="8" height="0.0" fill="black" />
<rect x="552" y="56.0" width="8" height="0.0" fill="black" />
<text y="64" x="41" font-family="monospace" font-size="8" text-anchor="end">320</text>
<rect x="48" y="64.0" width="8" height="0.0" fill="black" />
<rect x="56" y="64.0" width="8" height="0.0" fill="black" />
<rect x="64" y="64.0" width="8" height="0.0" fill="black" />
<rect x="72" y="64.0" width="8" height="0.0" fill="black" />
<rect x="80" y="64.0" width="8" height="0.0" fill="black" />
<rect x="88" y="64.0" width="8" height="0.0" fill="black" />
<rect x="96" y="64.0" width="8" height="0.0" fill="black" />
<rect x="104" y="64.0" width="8" height="0.0" fill="black" />
<rect x="112" y="64.0" width="8" height="0.0" fill="black" />
<rect x="120" y="64.0" width="8" height="0.0" fill="black" />
<rect x="128" y="64.0" width="8" height="0.0" fill="black" />
<rect x="136" y="64.0" width="8" height="0.0" fill="black" />
<rect x="144" y="64.0" width="8" height="0.0" fill="black" />
<rect x="152" y="64.0" width="8" height="0.0" fill="black" />
<rect x="160" y="64.0" width="8" height="0.0" fill="black" />
<rect x="168" y="64.0" width="8" height="0.0" fill="black" />
<rect x="176" y="64.0" width="8" height="0.0" fill="black" />
<rect x="184" y="64.0" width="8" height="0.0" fill="black" />
<rect x="192" y="64.0" width="8" height="0.0" fill="black" />
<rect x="200" y="64.0" width="8" height="0.0" fill="black" />
<rect x="208" y="64.0" width="8" height="0.0" fill="black" />
<rect x="216" y="64.0" width="8" height="0.0" fill="black" />
<rect x="224" y="64.0" width="8" height="0.0" fill="black" />
<rect x="232" y="64.0" width="8" height="0.0" fill="black" />
<rect x="240" y="64.0" width="8" height="0.0" fill="black" />
<rect x="248" y="64.0" width="8" height="0.0" fill="black" />
<rect x="256" y="64.0" width="8" height="0.0" fill="black" />
<rect x="264" y="64.0" width="8" height="0.0" fill="black" />
<rect x="272" y="64.0" width="8" height="0.0" fill="black" />
<rect x="280" y="64.0" width="8" height="0.0" fill="black" />
<rect x="288" y="64.0" width="8" height="0.0" fill="black" />
<rect x="296" y="64.0" width="8" height="0.0" fill="black" />
<rect x="304" y="64.0" width="8" height="0.0" fill="black" />
<rect x="312" y="64.0" width="8" height="0.0" fill="black" />
<rect x="320" y="64.0" width="8" height="0.0" fill="black" />
<rect x="328" y="64.0" width="8" height="0.0" fill="black" />
<rect x="336" y="64.0" width="8" height="0.0" fill="black" />
<rect x="344" y="64.0" width="8" height="0.0" fill="black" />
<rect x="352" y="64.0" width="8" height="0.0" fill="black" />
<rect x="360" y="64.0" width="8" height="0.0" fill="black" />
<rect x="368" y="64.0" width="8" height="0.0" fill="black" />
<rect x="376" y="64.0" width="8" height="0.0" fill="black" />
<rect x="384" y="64.0" width="8" height="0.0" fill="black" />
<rect x="392" y="64.0" width="8" height="0.0" fill="black" />
<rect x="400" y="64.0" width="8" height="0.0" fill="black" />
<rect x="408" y="64.0" width="8" height="0.0" fill="black" />
<rect x="416" y="64.0" width="8" height="0.0" fill="black" />
<rect x="424" y="64.0" width="8" height="0.0" fill="black" />
<rect x="432" y="64.0" width="8" height="0.0" fill="black" />
<rect x="440" y="64.0" width="8" height="0.0" fill="black" />
<rect x="448" y="64.0" width="8" height="0.0" fill="black" />
<rect x="456" y="64.0" width="8" height="0.0" fill="black" />
<rect x="464" y="64.0" width="8" height="0.0" fill="black" />
<rect x="472" y="64.0" width="8" height="0.0" fill="black" />
<rect x="480" y="64.0" width="8" height="0.0" fill="black" />
<rect x="488" y="64.0" width="8" height="0.0" fill="black" />
<rect x="496" y="64.0" width="8" height="0.0" fill="black" />
<rect x="504" y="64.0" width="8" height="0.0" fill="black" />
<rect x="512" y="64.0" width="8" height="0.0" fill="black" />
<rect x="520" y="64.0" width="8" height="0.0" fill="black" />
<rect x="528" y="64.0" width="8" height="0.0" fill="black" />
<rect x="536" y="64.0" width="8" height="0.0" fill="black" />
<rect x="544" y="64.0" width="8" height="0.0" fill="black" />
<rect x="552" y="64.0" width="8" height="0.0" fill="black" />
<path stroke="black" stroke-width="1" fill="none" d="M52,12 L556,12 S564,12 564,20 L564,60 S564,68 556,68 L52,68 S44,68 44,60 L44,20 S44,12 52,12 Z" />
<rect y="74" x="48" width="8" height="8" fill="white" stroke="none" />
<text y="78" x="48" font-family="monospace" font-size="8" font-weight="bold" text-anchor="start">Page Type</text>
<text y="78" x="381" font-family="monospace" font-size="8" font-weight="bold" text-anchor="end">Pages</text>
<text y="78" x="461" font-family="monospace" font-size="8" font-weight="bold" text-anchor="end">Ratio</text>
<rect y="84" x="48" width="8" height="8" fill="black" stroke="black" />
<text y="88" x="61" font-family="monospace" font-size="8" font-weight="normal" text-anchor="start">System</text>
<text y="88" x="381" font-family="monospace" font-size="8" font-weight="normal" text-anchor="end">3</text>
<text y="88" x="461" font-family="monospace" font-size="8" font-weight="normal" text-anchor="end">   0.47%</text>
<rect y="94" x="48" width="8" height="8" fill="#6960c0" stroke="black" />
<text y="98" x="61" font-family="monospace" font-size="8" font-weight="normal" text-anchor="start">Index 16</text>
<text y="98" x="381" font-family="monospace" font-size="8" font-weight="normal" text-anchor="end">95</text>
<text y="98" x="461" font-family="monospace" font-size="8" font-weight="normal" text-anchor="end">  14.84%</text>
<rect y="104" x="48" width="8" height="8" fill="white" stroke="black" />
<text y="108" x="61" font-family="monospace" font-size="8" font-weight="normal" text-anchor="start">Free space</text>
<text y="108" x="381" font-family="monospace" font-size="8" font-weight="normal" text-anchor="end">286</text>
<text y="108" x="461" font-family="monospace" font-size="8" font-weight="normal" text-anchor="end">  44.69%</text>
</svg>
