<?xml version="1.0"?>
<svg xmlns="http://www.w3.org/2000/svg" version="1.1">
<text y="13" x="41" font-family="monospace" font-size="8" font-weight="bold" text-anchor="end">Page</text>
<text y="24" x="41" font-family="monospace" font-size="8" text-anchor="end">0</text>
<rect x="48" y="16.0" width="8" height="8.0" fill="black" />
<rect x="56" y="16.0" width="8" height="8.0" fill="black" />
<rect x="64" y="16.0" width="8" height="8.0" fill="black" />
<rect x="72" y="23.32373046875" width="8" height="0.67626953125" fill="#64e4ac" />
<rect x="80" y="20.271484375" width="8" height="3.728515625" fill="#64e4ac" />
<rect x="88" y="16.5029296875" width="8" height="7.4970703125" fill="#64e4ac" />
<rect x="96" y="16.5029296875" width="8" height="7.4970703125" fill="#64e4ac" />
<rect x="104" y="16.5029296875" width="8" height="7.4970703125" fill="#64e4ac" />
<rect x="112" y="16.5029296875" width="8" height="7.4970703125" fill="#64e4ac" />
<rect x="120" y="16.53466796875" width="8" height="7.46533203125" fill="#64e4ac" />
<rect x="128" y="16.50830078125" width="8" height="7.49169921875" fill="#64e4ac" />
<rect x="136" y="16.50830078125" width="8" height="7.49169921875" fill="#64e4ac" />
<rect x="144" y="16.50830078125" width="8" height="7.49169921875" fill="#64e4ac" />
<rect x="152" y="16.50830078125" width="8" height="7.49169921875" fill="#64e4ac" />
<rect x="160" y="16.50830078125" width="8" height="7.49169921875" fill="#64e4ac" />
<rect x="168" y="16.50830078125" width="8" height="7.49169921875" fill="#64e4ac" />
<rect x="176" y="16.50830078125" width="8" height="7.49169921875" fill="#64e4ac" />
<rect x="184" y="16.50830078125" width="8" height="7.49169921875" fill="#64e4ac" />
<rect x="192" y="16.50830078125" width="8" height="7.49169921875" fill="#64e4ac" />
<rect x="200" y="16.50830078125" width="8" height="7.49169921875" fill="#64e4ac" />
<rect x="208" y="16.50830078125" width="8" height="7.49169921875" fill="#64e4ac" />
<rect x="216" y="16.50830078125" width="8" height="7.49169921875" fill="#64e4ac" />
<rect x="224" y="16.50830078125" width="8" height="7.49169921875" fill="#64e4ac" />
<rect x="232" y="16.50830078125" width="8" height="7.49169921875" fill="#64e4ac" />
<rect x="240" y="16.50830078125" width="8" height="7.49169921875" fill="#64e4ac" />
<rect x="248" y="16.50830078125" width="8" height="7.49169921875" fill="#64e4ac" />
<rect x="256" y="16.50830078125" width="8" height="7.49169921875" fill="#64e4ac" />
<rect x="264" y="16.50830078125" width="8" height="7.49169921875" fill="#64e4ac" />
<rect x="272" y="16.50830078125" width="8" height="7.49169921875" fill="#64e4ac" />
<rect x="280" y="16.50830078125" width="8" height="7.49169921875" fill="#64e4ac" />
<rect x="288" y="16.50830078125" width="8" height="7.49169921875" fill="#64e4ac" />
<rect x="296" y="16.50830078125" width="8" height="7.49169921875" fill="#64e4ac" />
<rect x="304" y="16.50830078125" width="8" height="7.49169921875" fill="#64e4ac" />
<rect x="312" y="16.50830078125" width="8" height="7.49169921875" fill="#64e4ac" />
<rect x="320" y="16.50830078125" width="8" height="7.49169921875" fill="#64e4ac" />
<rect x="328" y="16.50830078125" width="8" height="7.49169921875" fill="#64e4ac" />
<rect x="336" y="24.0" width="8" height="0.0" fill="black" />
<rect x="344" y="24.0" width="8" height="0.0" fill="black" />
<rect x="352" y="24.0" width="8" height="0.0" fill="black" />
<rect x="360" y="24.0" width="8" height="0.0" fill="black" />
<rect x="368" y="24.0" width="8" height="0.0" fill="black" />
<rect x="376" y="24.0" width="8" height="0.0" fill="black" />
<rect x="384" y="24.0" width="8" height="0.0" fill="black" />
<rect x="392" y="24.0" width="8" height="0.0" fill="black" />
<rect x="400" y="24.0" width="8" height="0.0" fill="black" />
<rect x="408" y="24.0" width="8" height="0.0" fill="black" />
<rect x="416" y="24.0" width="8" height="0.0" fill="black" />
<rect x="424" y="24.0" width="8" height="0.0" fill="black" />
<rect x="432" y="24.0" width="8" height="0.0" fill="black" />
<rect x="440" y="24.0" width="8" height="0.0" fill="black" />
<rect x="448" y="24.0" width="8" height="0.0" fill="black" />
<rect x="456" y="24.0" width="8" height="0.0" fill="black" />
<rect x="464" y="24.0" width="8" height="0.0" fill="black" />
<rect x="472" y="24.0" width="8" height="0.0" fill="black" />
<rect x="480" y="24.0" width="8" height="0.0" fill="black" />
<rect x="488" y="24.0" width="8" height="0.0" fill="black" />
<rect x="496" y="24.0" width="8" height="0.0" fill="black" />
<rect x="504" y="24.0" width="8" height="0.0" fill="black" />
<rect x="512" y="24.0" width="8" height="0.0" fill="black" />
<rect x="520" y="24.0" width="8" height="0.0" fill="black" />
<rect x="528" y="24.0" width="8" height="0.0" fill="black" />
<rect x="536" y="24.0" width="8" height="0.0" fill="black" />
<rect x="544" y="24.0" width="8" height="0.0" fill="black" />
<rect x="552" y="24.0" width="8" height="0.0" fill="black" />
<text y="32" x="41" font-family="monospace" font-size="8" text-anchor="end">64</text>
<rect x="48" y="24.50830078125" width="8" height="7.49169921875" fill="#64e4ac" />
<rect x="56" y="24.50830078125" width="8" height="7.49169921875" fill="#64e4ac" />
<rect x="64" y="24.50830078125" width="8" height="7.49169921875" fill="#64e4ac" />
<rect x="72" y="24.50830078125" width="8" height="7.49169921875" fill="#64e4ac" />
<rect x="80" y="24.50830078125" width="8" height="7.49169921875" fill="#64e4ac" />
<rect x="88" y="24.50830078125" width="8" height="7.49169921875" fill="#64e4ac" />
<rect x="96" y="24.50830078125" width="8" height="7.49169921875" fill="#64e4ac" />
<rect x="104" y="24.50830078125" width="8" height="7.49169921875" fill="#64e4ac" />
<rect x="112" y="24.50830078125" width="8" height="7.49169921875" fill="#64e4ac" />
<rect x="120" y="24.50830078125" width="8" height="7.49169921875" fill="#64e4ac" />
<rect x="128" y="24.50830078125" width="8" height="7.49169921875" fill="#64e4ac" />
<rect x="136" y="24.53515625" width="8" height="7.46484375" fill="#64e4ac" />
<rect x="144" y="24.515625" width="8" height="7.484375" fill="#64e4ac" />
<rect x="152" y="24.515625" width="8" height="7.484375" fill="#64e4ac" />
<rect x="160" y="24.515625" width="8" height="7.484375" fill="#64e4ac" />
<rect x="168" y="24.515625" width="8" height="7.484375" fill="#64e4ac" />
<rect x="176" y="24.515625" width="8" height="7.484375" fill="#64e4ac" />
<rect x="184" y="24.515625" width="8" height="7.484375" fill="#64e4ac" />
<rect x="192" y="24.515625" width="8" height="7.484375" fill="#64e4ac" />
<rect x="200" y="24.515625" width="8" height="7.484375" fill="#64e4ac" />
<rect x="208" y="24.515625" width="8" height="7.484375" fill="#64e4ac" />
<rect x="216" y="24.515625" width="8" height="7.484375" fill="#64e4ac" />
<rect x="224" y="24.515625" width="8" height="7.484375" fill="#64e4ac" />
<rect x="232" y="24.515625" width="8" height="7.484375" fill="#64e4ac" />
<rect x="240" y="24.515625" width="8" height="7.484375" fill="#64e4ac" />
<rect x="248" y="24.515625" width="8" height="7.484375" fill="#64e4ac" />
<rect x="256" y="24.515625" width="8" height="7.484375" fill="#64e4ac" />
<rect x="264" y="24.515625" width="8" height="7.484375" fill="#64e4ac" />
<rect x="272" y="24.515625" width="8" height="7.484375" fill="#64e4ac" />
<rect x="280" y="24.515625" width="8" height="7.484375" fill="#64e4ac" />
<rect x="288" y="24.515625" width="8" height="7.484375" fill="#64e4ac" />
<rect x="296" y="24.515625" width="8" height="7.484375" fill="#64e4ac" />
<rect x="304" y="24.515625" width="8" height="7.484375" fill="#64e4ac" />
<rect x="312" y="24.515625" width="8" height="7.484375" fill="#64e4ac" />
<rect x="320" y="24.515625" width="8" height="7.484375" fill="#64e4ac" />
<rect x="328" y="24.515625" width="8" height="7.484375" fill="#64e4ac" />
<rect x="336" y="24.515625" width="8" height="7.484375" fill="#64e4ac" />
<rect x="344" y="24.515625" width="8" height="7.484375" fill="#64e4ac" />
<rect x="352" y="24.515625" width="8" height="7.484375" fill="#64e4ac" />
<rect x="360" y="24.515625" width="8" height="7.484375" fill="#64e4ac" />
<rect x="368" y="24.515625" width="8" height="7.484375" fill="#64e4ac" />
<rect x="376" y="24.515625" width="8" height="7.484375" fill="#64e4ac" />
<rect x="384" y="24.515625" width="8" height="7.484375" fill="#64e4ac" />
<rect x="392" y="24.515625" width="8" height="7.484375" fill="#64e4ac" />
<rect x="400" y="24.515625" width="8" height="7.484375" fill="#64e4ac" />
<rect x="408" y="24.515625" width="8" height="7.484375" fill="#64e4ac" />
<rect x="416" y="24.515625" width="8" height="7.484375" fill="#64e4ac" />
<rect x="424" y="24.515625" width="8" height="7.484375" fill="#64e4ac" />
<rect x="432" y="24.515625" width="8" height="7.484375" fill="#64e4ac" />
<rect x="440" y="24.515625" width="8" height="7.484375" fill="#64e4ac" />
<rect x="448" y="24.515625" width="8" height="7.484375" fill="#64e4ac" />
<rect x="456" y="24.515625" width="8" height="7.484375" fill="#64e4ac" />
<rect x="464" y="24.515625" width="8" height="7.484375" fill="#64e4ac" />
<rect x="472" y="24.515625" width="8" height="7.484375" fill="#64e4ac" />
<rect x="480" y="24.515625" width="8" height="7.484375" fill="#64e4ac" />
<rect x="488" y="24.515625" width="8" height="7.484375" fill="#64e4ac" />
<rect x="496" y="24.515625" width="8" height="7.484375" fill="#64e4ac" />
<rect x="504" y="24.515625" width="8" height="7.484375" fill="#64e4ac" />
<rect x="512" y="24.515625" width="8" height="7.484375" fill="#64e4ac" />
<rect x="520" y="24.515625" width="8" height="7.484375" fill="#64e4ac" />
<rect x="528" y="24.9892578125" width="8" height="7.0107421875" fill="#64e4ac" />
<rect x="536" y="32.0" width="8" height="0.0" fill="black" />
<rect x="544" y="32.0" width="8" height="0.0" fill="black" />
<rect x="552" y="32.0" width="8" height="0.0" fill="black" />
<path stroke="black" stroke-width="1" fill="none" d="M52,12 L556,12 S564,12 564,20 L564,28 S564,36 556,36 L52,36 S44,36 44,28 L44,20 S44,12 52,12 Z" />
<rect y="42" x="48" width="8" height="8" fill="white" stroke="none" />
<text y="46" x="48" font-family="monospace" font-size="8" font-weight="bold" text-anchor="start">Page Type</text>
<text y="46" x="381" font-family="monospace" font-size="8" font-weight="bold" text-anchor="end">Pages</text>
<text y="46" x="461" font-family="monospace" font-size="8" font-weight="bold" text-anchor="end">Ratio</text>
<rect y="52" x="48" width="8" height="8" fill="black" stroke="black" />
<text y="56" x="61" font-family="monospace" font-size="8" font-weight="normal" text-anchor="start">System</text>
<text y="56" x="381" font-family="monospace" font-size="8" font-weight="normal" text-anchor="end">3</text>
<text y="56" x="461" font-family="monospace" font-size="8" font-weight="normal" text-anchor="end">   0.52%</text>
<rect y="62" x="48" width="8" height="8" fill="#64e4ac" stroke="black" />
<text y="66" x="61" font-family="monospace" font-size="8" font-weight="normal" text-anchor="start">Index 43</text>
<text y="66" x="381" font-family="monospace" font-size="8" font-weight="normal" text-anchor="end">94</text>
<text y="66" x="461" font-family="monospace" font-size="8" font-weight="normal" text-anchor="end">  16.32%</text>
<rect y="72" x="48" width="8" height="8" fill="white" stroke="black" />
<text y="76" x="61" font-family="monospace" font-size="8" font-weight="normal" text-anchor="start">Free space</text>
<text y="76" x="381" font-family="monospace" font-size="8" font-weight="normal" text-anchor="end">31</text>
<text y="76" x="461" font-family="monospace" font-size="8" font-weight="normal" text-anchor="end">   5.38%</text>
</svg>
